<?xml version="1.0" standalone="no"?>
<!DOCTYPE svg PUBLIC "-//W3C//DTD SVG 20010904//EN"
 "http://www.w3.org/TR/2001/REC-SVG-20010904/DTD/svg10.dtd">
<svg version="1.0" xmlns="http://www.w3.org/2000/svg"
 width="500.000000pt" height="500.000000pt" viewBox="0 0 500.000000 500.000000"
 preserveAspectRatio="xMidYMid meet">
<metadata>
Created by potrace 1.14, written by Peter Selinger 2001-2017
</metadata>
<g transform="translate(0.000000,500.000000) scale(0.100000,-0.100000)"
fill="#000000" stroke="none">
<path d="M1349 4996 c-2 -2 -30 -7 -62 -10 -32 -4 -64 -9 -70 -11 -7 -3 -23
-6 -37 -9 -40 -7 -148 -36 -178 -48 -15 -6 -41 -17 -59 -24 -17 -8 -35 -14
-39 -14 -19 0 -175 -87 -259 -144 -99 -68 -278 -238 -347 -331 -151 -205 -249
-442 -286 -698 -9 -68 -9 -2334 1 -2412 20 -159 72 -326 151 -483 133 -264
385 -516 649 -648 140 -71 263 -112 437 -145 89 -17 172 -18 1275 -16 l1180 2
119 28 c303 73 526 195 736 406 217 218 343 451 412 763 l23 103 0 1175 c0
1030 -3 1231 -21 1313 -2 9 -6 26 -8 36 -30 132 -78 260 -146 388 -72 135
-146 232 -269 353 -210 209 -470 346 -766 405 -16 3 -41 9 -55 12 -27 7 -2374
16 -2381 9z m1506 -746 c133 -17 164 -23 266 -50 503 -130 786 -482 782 -971
-1 -156 -28 -268 -99 -415 -114 -238 -310 -438 -556 -569 -106 -56 -196 -90
-330 -123 l-107 -27 32 -53 c18 -30 37 -61 42 -71 27 -46 193 -277 258 -358
162 -204 397 -445 596 -613 30 -25 59 -50 65 -55 21 -20 181 -141 218 -165 20
-13 35 -27 33 -30 -2 -3 -272 -5 -600 -5 l-597 0 -60 65 c-146 159 -260 325
-378 555 -98 190 -192 450 -216 600 -2 17 -8 44 -12 60 l-8 30 -147 2 -147 1
-2 -656 -3 -657 -480 0 -480 0 -3 1758 -2 1757 937 -1 c516 0 965 -4 998 -9z"/>
<path d="M1890 3152 l0 -764 248 4 c232 5 251 7 319 30 157 56 284 170 359
323 76 156 104 305 99 520 -7 257 -72 414 -220 526 -125 94 -246 120 -567 123
l-238 3 0 -765z"/>
</g>
</svg>
